<svg width="194" height="25" viewBox="0 0 194 25" fill="none" xmlns="http://www.w3.org/2000/svg">
<path d="M6.475 24C6.125 24 5.64667 24 5.04 24C4.45667 24.0233 3.86167 24.035 3.255 24.035C2.64833 24.035 2.135 24.035 1.715 24.035C1.295 24.0583 1.085 24.07 1.085 24.07C0.921667 23.9533 0.84 23.755 0.84 23.475C0.84 23.1717 0.921667 22.9733 1.085 22.88C1.73833 22.8333 2.275 22.7517 2.695 22.635C3.115 22.5183 3.43 22.25 3.64 21.83C3.87333 21.3867 3.99 20.6867 3.99 19.73V5.695C3.99 4.715 3.87333 4.015 3.64 3.595C3.43 3.175 3.115 2.90667 2.695 2.79C2.275 2.65 1.73833 2.56833 1.085 2.545C0.921667 2.42833 0.84 2.23 0.84 1.95C0.84 1.64667 0.921667 1.44833 1.085 1.355C1.085 1.355 1.295 1.36667 1.715 1.39C2.135 1.39 2.64833 1.39 3.255 1.39C3.86167 1.39 4.45667 1.40167 5.04 1.425C5.64667 1.425 6.125 1.425 6.475 1.425C7.175 1.425 7.89833 1.425 8.645 1.425C9.415 1.40167 10.2667 1.39 11.2 1.39C14.07 1.39 16.45 1.92667 18.34 3C20.23 4.05 21.6417 5.47333 22.575 7.27C23.5317 9.04333 24.01 11.015 24.01 13.185C24.01 14.9583 23.7417 16.545 23.205 17.945C22.6917 19.3217 22.015 20.3833 21.175 21.13C19.9383 22.2033 18.5033 22.9617 16.87 23.405C15.26 23.8483 13.685 24.07 12.145 24.07C11.6783 24.07 11.0833 24.0583 10.36 24.035C9.66 24.035 8.94833 24.0233 8.225 24C7.525 24 6.94167 24 6.475 24ZM8.89 19.835C8.89 21.0017 9.14667 21.76 9.66 22.11C10.1733 22.4367 11.0367 22.6 12.25 22.6C12.9267 22.6 13.6383 22.46 14.385 22.18C15.1317 21.8767 15.8317 21.3983 16.485 20.745C17.1383 20.0683 17.675 19.1817 18.095 18.085C18.515 16.9883 18.725 15.6467 18.725 14.06C18.725 12.73 18.6433 11.4117 18.48 10.105C18.3167 8.775 17.9783 7.57333 17.465 6.5C16.975 5.40333 16.2167 4.52833 15.19 3.875C14.1633 3.19833 12.7867 2.86 11.06 2.86C10.43 2.86 9.905 3.05833 9.485 3.455C9.08833 3.85167 8.89 4.52833 8.89 5.485V19.835ZM40.7881 19.485C40.9748 19.485 41.1031 19.6133 41.1731 19.87C41.2665 20.1033 41.3131 20.3367 41.3131 20.57C40.4498 21.8533 39.4465 22.81 38.3031 23.44C37.1598 24.0467 35.9815 24.35 34.7681 24.35C32.3648 24.35 30.5215 23.7667 29.2381 22.6C28.4915 21.9233 27.9315 21.095 27.5581 20.115C27.1848 19.1117 26.9981 18.0967 26.9981 17.07C26.9981 15.74 27.2315 14.55 27.6981 13.5C28.1648 12.4267 28.7831 11.5167 29.5531 10.77C30.3231 10.0233 31.1748 9.45167 32.1081 9.055C33.0415 8.65833 33.9631 8.46 34.8731 8.46C36.1565 8.46 37.2065 8.64667 38.0231 9.02C38.8631 9.37 39.5048 9.84833 39.9481 10.455C40.4148 11.0617 40.7298 11.7383 40.8931 12.485C41.0798 13.2083 41.1731 13.9433 41.1731 14.69C41.1731 14.9233 41.1031 15.1683 40.9631 15.425C40.8465 15.6583 40.5781 15.775 40.1581 15.775H31.7581C31.7581 15.8683 31.7465 15.9617 31.7231 16.055C31.7231 16.125 31.7231 16.2183 31.7231 16.335C31.7231 18.0383 32.1198 19.2983 32.9131 20.115C33.7065 20.9317 34.7798 21.34 36.1331 21.34C36.8098 21.34 37.5681 21.2117 38.4081 20.955C39.2715 20.6983 40.0648 20.2083 40.7881 19.485ZM31.8981 14.375H36.6581C36.7048 14.3283 36.7281 14.2233 36.7281 14.06C36.7281 13.8733 36.7281 13.7333 36.7281 13.64C36.7281 12.7067 36.5998 11.9717 36.3431 11.435C36.1098 10.8983 35.8181 10.5133 35.4681 10.28C35.1415 10.0467 34.8148 9.93 34.4881 9.93C34.3015 9.93 34.0098 10.0233 33.6131 10.21C33.2165 10.3967 32.8781 10.7 32.5981 11.12C32.3648 11.47 32.1898 11.9483 32.0731 12.555C31.9798 13.1617 31.9215 13.7683 31.8981 14.375ZM54.5579 9.93C54.4646 9.81333 54.4179 9.615 54.4179 9.335C54.4179 9.03167 54.4646 8.83333 54.5579 8.74C55.0246 8.76333 55.5612 8.78667 56.1679 8.81C56.7979 8.81 57.4396 8.81 58.0929 8.81C58.4896 8.81 58.9329 8.81 59.4229 8.81C59.9362 8.78667 60.3796 8.76333 60.7529 8.74C60.8696 8.83333 60.9279 9.03167 60.9279 9.335C60.9279 9.615 60.8696 9.81333 60.7529 9.93C59.8196 10.0233 59.1662 10.3033 58.7929 10.77C58.4429 11.2367 58.0929 11.8667 57.7429 12.66L52.9479 23.615C52.7846 23.965 52.5629 24.1867 52.2829 24.28C52.0029 24.3733 51.7696 24.42 51.5829 24.42C51.3496 24.42 51.1046 24.3617 50.8479 24.245C50.6146 24.1283 50.4396 23.9417 50.3229 23.685L45.7379 12.625C45.5046 12.0417 45.2946 11.5633 45.1079 11.19C44.9446 10.8167 44.7112 10.5367 44.4079 10.35C44.1046 10.14 43.6146 10 42.9379 9.93C42.8446 9.81333 42.7979 9.615 42.7979 9.335C42.7979 9.03167 42.8446 8.83333 42.9379 8.74C43.5912 8.76333 44.3146 8.78667 45.1079 8.81C45.9246 8.81 46.6362 8.81 47.2429 8.81C48.1062 8.81 48.8879 8.81 49.5879 8.81C50.3112 8.78667 50.9996 8.76333 51.6529 8.74C51.7696 8.83333 51.8279 9.03167 51.8279 9.335C51.8279 9.615 51.7696 9.81333 51.6529 9.93C50.9296 10 50.4629 10.1283 50.2529 10.315C50.0429 10.4783 49.9846 10.735 50.0779 11.085C50.1946 11.4117 50.3579 11.855 50.5679 12.415L52.7729 18.645C52.8196 18.7617 52.8779 18.8667 52.9479 18.96C53.0179 19.03 53.0879 18.9833 53.1579 18.82L55.9229 12.415C56.2962 11.5283 56.4012 10.91 56.2379 10.56C56.0746 10.21 55.5146 10 54.5579 9.93ZM75.3501 24.35C73.6467 24.35 72.1067 24.1867 70.7301 23.86C69.3534 23.51 68.1051 22.9383 66.9851 22.145C66.0517 21.4683 65.2701 20.6283 64.6401 19.625C64.0101 18.5983 63.5317 17.5133 63.2051 16.37C62.9017 15.2033 62.7501 14.0717 62.7501 12.975C62.7501 11.0383 63.0767 9.335 63.7301 7.865C64.4067 6.37167 65.3284 5.11167 66.4951 4.085C67.6617 3.05833 69.0034 2.28833 70.5201 1.775C72.0601 1.23833 73.6817 0.969998 75.3851 0.969998C76.8317 0.969998 78.0101 1.08667 78.9201 1.32C79.8301 1.55333 80.6001 1.79833 81.2301 2.055C81.8601 2.31166 82.4667 2.475 83.0501 2.545C83.2134 3.50167 83.3534 4.42333 83.4701 5.31C83.6101 6.17333 83.7267 7.06 83.8201 7.97C83.6334 8.06333 83.3884 8.13333 83.0851 8.18C82.7817 8.22667 82.5251 8.215 82.3151 8.145C82.0117 7.14167 81.5917 6.20833 81.0551 5.345C80.5417 4.45833 79.8067 3.74667 78.8501 3.21C77.8934 2.67333 76.6101 2.405 75.0001 2.405C73.6234 2.405 72.4101 2.86 71.3601 3.77C70.3101 4.65667 69.4934 5.84667 68.9101 7.34C68.3267 8.83333 68.0351 10.49 68.0351 12.31C68.0351 13.6633 68.2217 14.9583 68.5951 16.195C68.9684 17.4317 69.4817 18.5283 70.1351 19.485C70.8117 20.4183 71.5934 21.165 72.4801 21.725C73.3667 22.2617 74.3117 22.53 75.3151 22.53C76.5517 22.53 77.8467 22.2617 79.2001 21.725C80.5534 21.1883 81.8484 20.2433 83.0851 18.89C83.2717 18.89 83.4817 18.9717 83.7151 19.135C83.9717 19.2983 84.1467 19.4617 84.2401 19.625C83.0501 21.1883 81.6967 22.3667 80.1801 23.16C78.6634 23.9533 77.0534 24.35 75.3501 24.35ZM87.462 16.755C87.462 15.7283 87.6137 14.7133 87.917 13.71C88.2203 12.7067 88.7103 11.82 89.387 11.05C90.0637 10.2567 90.9387 9.62667 92.012 9.16C93.1087 8.69333 94.3803 8.46 95.827 8.46C97.5537 8.46 99.0353 8.81 100.272 9.51C101.532 10.1867 102.489 11.1317 103.142 12.345C103.819 13.5583 104.157 14.9233 104.157 16.44C104.157 17.42 103.982 18.4583 103.632 19.555C103.282 20.6283 102.664 21.5617 101.777 22.355C100.284 23.685 98.2887 24.35 95.792 24.35C94.2287 24.35 92.817 24.035 91.557 23.405C90.297 22.775 89.2937 21.8883 88.547 20.745C87.8237 19.6017 87.462 18.2717 87.462 16.755ZM95.267 9.93C94.497 9.93 93.902 10.21 93.482 10.77C93.062 11.33 92.7703 12.0767 92.607 13.01C92.4437 13.92 92.362 14.9117 92.362 15.985C92.362 16.6383 92.432 17.3617 92.572 18.155C92.7353 18.925 92.9687 19.6717 93.272 20.395C93.5987 21.1183 94.007 21.7133 94.497 22.18C95.0103 22.6467 95.6287 22.88 96.352 22.88C96.772 22.88 97.2037 22.7283 97.647 22.425C98.1137 22.1217 98.4987 21.585 98.802 20.815C99.1053 20.045 99.257 18.96 99.257 17.56C99.257 15.1567 98.8837 13.29 98.137 11.96C97.4137 10.6067 96.457 9.93 95.267 9.93ZM113.424 19.73C113.424 20.6867 113.471 21.3867 113.564 21.83C113.681 22.25 113.868 22.5183 114.124 22.635C114.381 22.7517 114.754 22.8333 115.244 22.88C115.361 22.9733 115.419 23.1717 115.419 23.475C115.419 23.755 115.361 23.9533 115.244 24.07C114.498 24.0467 113.821 24.0233 113.214 24C112.631 24 111.943 24 111.149 24C110.216 24 109.364 24 108.594 24C107.848 24.0233 107.101 24.0467 106.354 24.07C106.261 23.9533 106.214 23.755 106.214 23.475C106.214 23.1717 106.261 22.9733 106.354 22.88C107.078 22.81 107.614 22.7283 107.964 22.635C108.314 22.5183 108.548 22.25 108.664 21.83C108.804 21.3867 108.874 20.6867 108.874 19.73V13.185C108.874 12.5083 108.816 12.0067 108.699 11.68C108.583 11.3533 108.361 11.1317 108.034 11.015C107.708 10.8983 107.229 10.805 106.599 10.735C106.576 10.6183 106.553 10.4317 106.529 10.175C106.506 9.895 106.506 9.70833 106.529 9.615C107.743 9.45167 108.851 9.265 109.854 9.055C110.858 8.82167 111.686 8.62333 112.339 8.46C112.853 8.46 113.121 8.65833 113.144 9.055C113.144 9.055 113.168 9.27667 113.214 9.72C113.284 10.1633 113.343 10.7 113.389 11.33C114.019 10.8867 114.696 10.4433 115.419 10C116.143 9.55667 116.831 9.195 117.484 8.915C118.161 8.61167 118.733 8.46 119.199 8.46C120.716 8.46 121.871 8.915 122.664 9.825C123.458 10.7117 123.854 12.1233 123.854 14.06V19.52C123.854 20.5 123.924 21.2233 124.064 21.69C124.228 22.1567 124.508 22.46 124.904 22.6C125.301 22.74 125.849 22.8333 126.549 22.88C126.666 22.9733 126.724 23.1717 126.724 23.475C126.724 23.755 126.666 23.9533 126.549 24.07C125.803 24.0467 125.033 24.0233 124.239 24C123.446 24 122.559 24 121.579 24C120.739 24 120.004 24 119.374 24C118.744 24.0233 118.056 24.0467 117.309 24.07C117.216 23.9533 117.169 23.755 117.169 23.475C117.169 23.1717 117.216 22.9733 117.309 22.88C117.799 22.8333 118.184 22.74 118.464 22.6C118.768 22.46 118.978 22.1567 119.094 21.69C119.234 21.2233 119.304 20.5 119.304 19.52V13.675C119.304 12.6717 119.071 11.9833 118.604 11.61C118.138 11.2367 117.554 11.05 116.854 11.05C116.551 11.05 116.073 11.2017 115.419 11.505C114.789 11.8083 114.124 12.205 113.424 12.695V19.73ZM134.992 19.73C134.992 20.6867 135.038 21.3867 135.132 21.83C135.248 22.25 135.435 22.5183 135.692 22.635C135.948 22.7517 136.322 22.8333 136.812 22.88C136.928 22.9733 136.987 23.1717 136.987 23.475C136.987 23.755 136.928 23.9533 136.812 24.07C136.065 24.0467 135.388 24.0233 134.782 24C134.198 24 133.51 24 132.717 24C131.783 24 130.932 24 130.162 24C129.415 24.0233 128.668 24.0467 127.922 24.07C127.828 23.9533 127.782 23.755 127.782 23.475C127.782 23.1717 127.828 22.9733 127.922 22.88C128.645 22.81 129.182 22.7283 129.532 22.635C129.882 22.5183 130.115 22.25 130.232 21.83C130.372 21.3867 130.442 20.6867 130.442 19.73V13.185C130.442 12.5083 130.383 12.0067 130.267 11.68C130.15 11.3533 129.928 11.1317 129.602 11.015C129.275 10.8983 128.797 10.805 128.167 10.735C128.143 10.6183 128.12 10.4317 128.097 10.175C128.073 9.895 128.073 9.70833 128.097 9.615C129.31 9.45167 130.418 9.265 131.422 9.055C132.425 8.82167 133.253 8.62333 133.907 8.46C134.42 8.46 134.688 8.65833 134.712 9.055C134.712 9.055 134.735 9.27667 134.782 9.72C134.852 10.1633 134.91 10.7 134.957 11.33C135.587 10.8867 136.263 10.4433 136.987 10C137.71 9.55667 138.398 9.195 139.052 8.915C139.728 8.61167 140.3 8.46 140.767 8.46C142.283 8.46 143.438 8.915 144.232 9.825C145.025 10.7117 145.422 12.1233 145.422 14.06V19.52C145.422 20.5 145.492 21.2233 145.632 21.69C145.795 22.1567 146.075 22.46 146.472 22.6C146.868 22.74 147.417 22.8333 148.117 22.88C148.233 22.9733 148.292 23.1717 148.292 23.475C148.292 23.755 148.233 23.9533 148.117 24.07C147.37 24.0467 146.6 24.0233 145.807 24C145.013 24 144.127 24 143.147 24C142.307 24 141.572 24 140.942 24C140.312 24.0233 139.623 24.0467 138.877 24.07C138.783 23.9533 138.737 23.755 138.737 23.475C138.737 23.1717 138.783 22.9733 138.877 22.88C139.367 22.8333 139.752 22.74 140.032 22.6C140.335 22.46 140.545 22.1567 140.662 21.69C140.802 21.2233 140.872 20.5 140.872 19.52V13.675C140.872 12.6717 140.638 11.9833 140.172 11.61C139.705 11.2367 139.122 11.05 138.422 11.05C138.118 11.05 137.64 11.2017 136.987 11.505C136.357 11.8083 135.692 12.205 134.992 12.695V19.73ZM163.664 19.485C163.851 19.485 163.979 19.6133 164.049 19.87C164.142 20.1033 164.189 20.3367 164.189 20.57C163.326 21.8533 162.322 22.81 161.179 23.44C160.036 24.0467 158.857 24.35 157.644 24.35C155.241 24.35 153.397 23.7667 152.114 22.6C151.367 21.9233 150.807 21.095 150.434 20.115C150.061 19.1117 149.874 18.0967 149.874 17.07C149.874 15.74 150.107 14.55 150.574 13.5C151.041 12.4267 151.659 11.5167 152.429 10.77C153.199 10.0233 154.051 9.45167 154.984 9.055C155.917 8.65833 156.839 8.46 157.749 8.46C159.032 8.46 160.082 8.64667 160.899 9.02C161.739 9.37 162.381 9.84833 162.824 10.455C163.291 11.0617 163.606 11.7383 163.769 12.485C163.956 13.2083 164.049 13.9433 164.049 14.69C164.049 14.9233 163.979 15.1683 163.839 15.425C163.722 15.6583 163.454 15.775 163.034 15.775H154.634C154.634 15.8683 154.622 15.9617 154.599 16.055C154.599 16.125 154.599 16.2183 154.599 16.335C154.599 18.0383 154.996 19.2983 155.789 20.115C156.582 20.9317 157.656 21.34 159.009 21.34C159.686 21.34 160.444 21.2117 161.284 20.955C162.147 20.6983 162.941 20.2083 163.664 19.485ZM154.774 14.375H159.534C159.581 14.3283 159.604 14.2233 159.604 14.06C159.604 13.8733 159.604 13.7333 159.604 13.64C159.604 12.7067 159.476 11.9717 159.219 11.435C158.986 10.8983 158.694 10.5133 158.344 10.28C158.017 10.0467 157.691 9.93 157.364 9.93C157.177 9.93 156.886 10.0233 156.489 10.21C156.092 10.3967 155.754 10.7 155.474 11.12C155.241 11.47 155.066 11.9483 154.949 12.555C154.856 13.1617 154.797 13.7683 154.774 14.375ZM180.712 20.955C180.059 21.9117 179.184 22.7167 178.087 23.37C176.991 24.0233 175.917 24.35 174.867 24.35C173.607 24.35 172.546 24.21 171.682 23.93C170.842 23.65 170.084 23.1833 169.407 22.53C168.731 21.9 168.194 21.095 167.797 20.115C167.424 19.135 167.237 18.085 167.237 16.965C167.237 15.2383 167.599 13.745 168.322 12.485C169.046 11.2017 169.991 10.21 171.157 9.51C172.347 8.81 173.631 8.46 175.007 8.46C176.291 8.46 177.352 8.65833 178.192 9.055C179.032 9.42833 179.662 9.895 180.082 10.455C180.502 11.015 180.712 11.5633 180.712 12.1C180.712 12.6367 180.526 13.1033 180.152 13.5C179.802 13.8733 179.347 14.06 178.787 14.06C178.227 14.06 177.737 13.9083 177.317 13.605C176.897 13.2783 176.664 12.8817 176.617 12.415C176.571 11.855 176.396 11.3067 176.092 10.77C175.812 10.21 175.346 9.93 174.692 9.93C172.872 9.93 171.962 11.8667 171.962 15.74C171.962 17.84 172.417 19.38 173.327 20.36C174.237 21.34 175.346 21.83 176.652 21.83C177.632 21.83 178.834 21.1767 180.257 19.87C180.444 19.87 180.561 19.9983 180.607 20.255C180.677 20.5117 180.712 20.745 180.712 20.955ZM184.109 8.81H185.089C185.089 7.41 185.124 6.43 185.194 5.87C185.264 5.28667 185.358 4.91333 185.474 4.75C185.591 4.58667 185.848 4.44667 186.244 4.33C186.664 4.21333 187.026 4.09667 187.329 3.98C187.609 3.86333 187.994 3.735 188.484 3.595C188.998 3.43167 189.313 3.35 189.429 3.35C189.616 3.35 189.709 3.455 189.709 3.665C189.709 3.665 189.686 4.03833 189.639 4.785C189.616 5.50833 189.581 6.45333 189.534 7.62L189.499 8.81H193.594C193.781 8.81 193.874 8.88 193.874 9.02V10.105C193.874 10.2683 193.781 10.385 193.594 10.455C193.408 10.525 193.221 10.56 193.034 10.56H189.499C189.499 11.7267 189.499 12.8933 189.499 14.06C189.523 15.2033 189.534 16.265 189.534 17.245C189.534 18.2017 189.534 18.9717 189.534 19.555C189.534 20.4183 189.698 21.025 190.024 21.375C190.351 21.725 190.701 21.9 191.074 21.9C191.401 21.9 191.751 21.865 192.124 21.795C192.521 21.7017 192.836 21.5733 193.069 21.41C193.279 21.5733 193.431 21.725 193.524 21.865C193.641 22.005 193.699 22.18 193.699 22.39C193.349 22.88 192.708 23.335 191.774 23.755C190.841 24.1517 189.896 24.35 188.939 24.35C188.519 24.35 188.029 24.2683 187.469 24.105C186.909 23.9417 186.431 23.6967 186.034 23.37C185.661 23.0433 185.393 22.6117 185.229 22.075C185.066 21.515 184.984 20.9317 184.984 20.325C184.984 19.7417 184.984 18.9133 184.984 17.84C185.008 16.7433 185.019 15.5533 185.019 14.27C185.043 12.9633 185.066 11.7267 185.089 10.56H182.814C182.698 10.56 182.639 10.49 182.639 10.35V9.335C182.873 9.14833 183.118 9.02 183.374 8.95C183.631 8.85667 183.876 8.81 184.109 8.81Z" fill="black"/>
</svg>
