<svg width="115" height="115" viewBox="0 0 115 115" fill="none" xmlns="http://www.w3.org/2000/svg">
<path d="M51.6159 12.88C53.1878 11.6571 55.1016 10.9544 57.0913 10.8693C59.081 10.7843 61.0478 11.3213 62.7182 12.4056L63.3843 12.8848L103.558 44.1264C107.012 46.8146 105.331 52.2339 101.167 52.6796L100.611 52.7083H95.8334V91.0416C95.8342 93.4594 94.9211 95.7881 93.2771 97.5609C91.6331 99.3338 89.3798 100.42 86.9688 100.601L86.2501 100.625H28.7501C26.3332 100.625 24.0057 99.7109 22.2338 98.067C20.462 96.4232 19.3768 94.1705 19.1955 91.7604L19.1668 91.0416V52.7083H14.3895C10.0147 52.7083 8.00698 47.3992 11.0209 44.4906L11.4426 44.1264L51.6159 12.88ZM57.5001 20.446L26.9532 44.2031C28.0505 45.0896 28.7501 46.4456 28.7501 47.9646V91.0416H43.1251V67.0833C43.1251 63.2708 44.6396 59.6145 47.3354 56.9187C50.0313 54.2228 53.6876 52.7083 57.5001 52.7083C61.3126 52.7083 64.9689 54.2228 67.6648 56.9187C70.3606 59.6145 71.8751 63.2708 71.8751 67.0833V91.0416H86.2501V47.9646C86.2501 46.4456 86.9497 45.0896 88.047 44.2031L57.5001 20.446ZM57.5001 62.2916C56.2293 62.2916 55.0105 62.7965 54.1119 63.6951C53.2133 64.5937 52.7084 65.8125 52.7084 67.0833V91.0416H62.2918V67.0833C62.2918 65.8125 61.7869 64.5937 60.8883 63.6951C59.9897 62.7965 58.7709 62.2916 57.5001 62.2916Z" fill="black"/>
</svg>
