<svg width="126" height="126" viewBox="0 0 126 126" fill="none" xmlns="http://www.w3.org/2000/svg">
<path d="M63 105C61.95 105 60.9241 104.686 60.0548 104.097C58.8735 103.304 31.1378 84.5145 22.5383 75.8993C12.9255 66.2865 11.8125 56.07 11.8125 49.2188C11.8195 41.7368 14.7947 34.5633 20.0853 29.2728C25.3758 23.9822 32.5493 21.007 40.0312 21C49.4917 21 57.8708 25.6778 63 32.844C65.6069 29.1815 69.0518 26.1956 73.0474 24.1352C77.0429 22.0749 81.4733 20.9999 85.9688 21C93.4507 21.007 100.624 23.9822 105.915 29.2728C111.205 34.5633 114.181 41.7368 114.188 49.2188C114.188 56.07 113.075 66.2865 103.462 75.8993C94.8465 84.5145 67.116 103.304 65.9452 104.097C65.0759 104.686 64.05 105 63 105ZM40.0312 31.5C35.3341 31.5069 30.8313 33.376 27.5099 36.6974C24.1885 40.0188 22.3194 44.5216 22.3125 49.2188C22.3125 54.957 23.2207 61.7348 29.9617 68.4757C36.3247 74.8388 55.5975 88.2945 63 93.3923C70.4025 88.2945 89.6752 74.8388 96.0382 68.4757C102.779 61.7348 103.688 54.957 103.688 49.2188C103.688 39.4485 95.739 31.5 85.9688 31.5C76.1985 31.5 68.25 39.4485 68.25 49.2188C68.25 50.6111 67.6969 51.9465 66.7123 52.9311C65.7277 53.9156 64.3924 54.4688 63 54.4688C61.6076 54.4688 60.2723 53.9156 59.2877 52.9311C58.3031 51.9465 57.75 50.6111 57.75 49.2188C57.7431 44.5216 55.874 40.0188 52.5526 36.6974C49.2312 33.376 44.7284 31.5069 40.0312 31.5Z" fill="#88798D"/>
</svg>
