<svg width="120" height="120" viewBox="0 0 120 120" fill="none" xmlns="http://www.w3.org/2000/svg">
<path d="M10 27.5C10 24.8478 11.0536 22.3043 12.9289 20.4289C14.8043 18.5536 17.3478 17.5 20 17.5H100C102.652 17.5 105.196 18.5536 107.071 20.4289C108.946 22.3043 110 24.8478 110 27.5V92.5C110 95.1522 108.946 97.6957 107.071 99.5711C105.196 101.446 102.652 102.5 100 102.5H20C17.3478 102.5 14.8043 101.446 12.9289 99.5711C11.0536 97.6957 10 95.1522 10 92.5V27.5ZM55 27.5H20V42.5H55V27.5ZM65 27.5V42.5H100V27.5H65ZM100 52.5H65V67.5H100V52.5ZM100 77.5H65V92.5H100V77.5ZM55 92.5V77.5H20V92.5H55ZM20 67.5H55V52.5H20V67.5Z" fill="black"/>
</svg>
