<svg width="101" height="101" viewBox="0 0 101 101" fill="none" xmlns="http://www.w3.org/2000/svg">
<path fill-rule="evenodd" clip-rule="evenodd" d="M30.5714 69.084L29.3468 83.8237C29.3244 84.0807 29.3796 84.3385 29.5055 84.5637C29.6313 84.7889 29.8218 84.9712 30.0524 85.0868C30.283 85.2025 30.5431 85.2462 30.7988 85.2123C31.0545 85.1784 31.2942 85.0685 31.4867 84.8968L45.4374 72.4991L49.1554 72.5811L50.5 72.5938C61.1997 72.5938 69.9867 69.8162 75.8763 65.1639C81.4944 60.7326 85.2188 54.0539 85.2188 44.1875C85.2188 34.3211 81.4944 27.6488 75.8763 23.2111C69.9867 18.5588 61.1997 15.7812 50.5 15.7812C39.8003 15.7812 31.0133 18.5588 25.1238 23.2111C19.5056 27.6488 15.7812 34.3211 15.7812 44.1875C15.7812 54.5905 19.9222 61.4964 26.1842 65.953L30.5714 69.084ZM37.774 91.9668L48.9471 82.0436C49.4563 82.0562 49.974 82.0625 50.5 82.0625C74.9041 82.0625 94.6875 69.4375 94.6875 44.1875C94.6875 18.9375 74.9041 6.3125 50.5 6.3125C26.0959 6.3125 6.3125 18.9375 6.3125 44.1875C6.3125 57.5511 11.8549 67.3796 20.6861 73.6669L19.9096 83.0346C19.7315 85.1767 20.1992 87.323 21.2524 89.1968C22.3057 91.0705 23.8961 92.5857 25.8187 93.547C27.7412 94.5083 29.9077 94.8715 32.0386 94.5899C34.1695 94.3082 36.1672 93.3946 37.774 91.9668Z" fill="#88789D"/>
</svg>
